<svg viewBox="0 0 55 56" xmlns="http://www.w3.org/2000/svg"><path d="M31.275 16.337c-6.087.226-21.188 1.938-21.188 14.688 0 13.688 17.288 14.25 22.938 5.4.813 1.275 4.425 4.688 5.663 5.85l7.1-7s-4.038-3.163-4.038-6.6V10.287C41.75 7.125 38.687 0 27.712 0c-11 0-16.837 6.875-16.837 13.037l9.188.85C22.1 7.7 26.837 7.7 26.837 7.7c5.088-.013 4.438 3.725 4.438 8.637zm0 10.85c0 10-10.525 8.5-10.525 2.15 0-5.9 6.313-7.087 10.525-7.224v5.075zm17 20.438C47.313 48.875 39.525 56 26.462 56 13.4 56 3.4 47.062.337 43.375c-.85-.962.126-1.413.688-1.038C10.187 47.9 24.5 57.063 47.588 46.125c.937-.462 1.662.25.687 1.5zm4.975.275c-.813 1.975-2 3.35-2.65 3.875-.688.563-1.188.337-.813-.475.376-.813 2.413-5.813 1.588-6.875-.813-1.037-4.625-.537-6-.4-1.35.125-1.625.25-1.75-.038-.288-.712 2.712-1.937 4.688-2.187 1.962-.225 5.124-.1 5.75.713.462.637 0 3.387-.813 5.387z"/></svg>