<svg viewBox="0 0 56 55" xmlns="http://www.w3.org/2000/svg"><path d="M55.361 13.894c-.002-1.674-.147-3.337-.544-4.97-.719-2.967-2.408-5.24-4.946-6.9-1.301-.852-2.73-1.377-4.256-1.651a24.033 24.033 0 0 0-3.55-.342c-.092-.004-.188-.017-.281-.027H14.51L13.48.062c-1.696.096-3.38.282-4.973.911-3.035 1.201-5.221 3.295-6.503 6.303-.435 1.02-.663 2.101-.823 3.196a23.02 23.02 0 0 0-.228 2.678c-.002.07-.017.14-.023.209v27.728c.02.32.037.64.058.961.114 1.848.35 3.685 1.128 5.382 1.475 3.221 3.941 5.337 7.336 6.355.956.288 1.94.425 2.933.518 1.257.12 2.518.139 3.779.139 8.34 0 16.68 0 25.02-.004 1.192 0 2.378-.076 3.561-.224 1.868-.24 3.623-.796 5.208-1.839 1.908-1.255 3.339-2.92 4.264-5.009.423-.956.664-1.971.838-3.002.259-1.532.315-3.08.313-4.63-.004-8.613.002-17.226-.006-25.84zm-14.57 9.05c0 4.32.002 8.64-.001 12.958 0 .946-.13 1.875-.55 2.736-.655 1.34-1.727 2.182-3.148 2.586-.792.226-1.601.355-2.426.392-2.159.102-4.024-1.362-4.41-3.484a4.264 4.264 0 0 1 2.358-4.584c.733-.363 1.517-.566 2.309-.736.857-.185 1.719-.347 2.572-.544.622-.143 1.037-.524 1.159-1.17.029-.144.04-.292.04-.439.002-4.117.002-8.232-.002-12.347a1.7 1.7 0 0 0-.058-.419c-.088-.342-.337-.55-.689-.531-.363.021-.72.08-1.077.15-1.725.34-3.447.69-5.17 1.038-1.759.353-3.518.71-5.28 1.065l-3.116.63c-.037.008-.073.02-.108.029-.628.174-.856.461-.884 1.11-.004.099-.002.197-.002.298-.002 5.9 0 11.804-.004 17.703 0 .954-.106 1.897-.489 2.783-.631 1.456-1.747 2.362-3.254 2.8-.795.23-1.612.361-2.439.39-2.174.081-3.98-1.363-4.352-3.503-.323-1.844.521-3.823 2.615-4.71.809-.34 1.658-.527 2.512-.704.65-.138 1.303-.261 1.952-.4.867-.19 1.32-.734 1.358-1.62.003-.116.002-.226.002-.342 0-6.714 0-13.43.003-20.145 0-.28.03-.567.095-.84.158-.647.62-1.015 1.238-1.176.58-.15 1.168-.255 1.755-.374 1.663-.336 3.325-.67 4.988-1.004l5.154-1.041c1.518-.307 3.036-.618 4.557-.917.498-.099 1.004-.2 1.506-.24.703-.056 1.186.386 1.257 1.093.018.168.028.338.028.508.003 4.335.003 8.668.001 13.002z" fill="#C08FD0" fill-rule="nonzero"/></svg>