<svg viewBox="0 0 57 56" xmlns="http://www.w3.org/2000/svg"><path d="M0 27.916C0 43.296 12.704 56 28.084 56c15.379 0 28.083-12.704 28.083-28.084C56.167 12.537 43.463 0 28.084 0 12.704 0 0 12.537 0 27.916zm38.448 13.04c-6.52-4.013-14.878-5.016-24.573-2.843-2.34.335-2.675-3.009-.669-3.343 10.698-2.507 19.725-1.337 27.08 3.176 1.84 1.17 0 4.012-1.838 3.01zm2.842-7.523c-7.523-4.68-19.057-6.018-27.917-3.343-2.842.835-3.845-3.51-1.17-4.18 10.197-3.009 22.734-1.504 31.427 3.845 2.34 1.505 0 5.182-2.34 3.678zM12.036 21.564c-2.842 1.003-4.68-3.845-1.505-5.015 9.863-3.009 26.58-2.507 36.944 3.678 2.841 1.504.167 6.185-2.842 4.513-9.027-5.349-24.072-5.85-32.597-3.176z" fill-rule="nonzero"/></svg>