<?xml version="1.0" encoding="UTF-8" standalone="no"?>
<!-- Created with Inkscape (http://www.inkscape.org/) -->

<svg
   xmlns:dc="http://purl.org/dc/elements/1.1/"
   xmlns:cc="http://creativecommons.org/ns#"
   xmlns:rdf="http://www.w3.org/1999/02/22-rdf-syntax-ns#"
   xmlns:svg="http://www.w3.org/2000/svg"
   xmlns="http://www.w3.org/2000/svg"
   xmlns:sodipodi="http://sodipodi.sourceforge.net/DTD/sodipodi-0.dtd"
   xmlns:inkscape="http://www.inkscape.org/namespaces/inkscape"
   version="1.0"
   width="100"
   height="100"
   viewBox="0.4 -4 100 100"
   id="svg2"
   xml:space="preserve"
   sodipodi:version="0.32"
   inkscape:version="0.92.2 (5c3e80d, 2017-08-06)"
   sodipodi:docname="Fox_Channel_logo.svg"
   inkscape:output_extension="org.inkscape.output.svg.inkscape"><title
     id="title820">Youtube Music logo</title><metadata
     id="metadata8"><rdf:RDF><cc:Work
         rdf:about=""><dc:format>image/svg+xml</dc:format><dc:type
           rdf:resource="http://purl.org/dc/dcmitype/StillImage" /><dc:title>Youtube Music logo</dc:title><cc:license
           rdf:resource="http://scripts.sil.org/OFL" /></cc:Work><cc:License
         rdf:about="http://scripts.sil.org/OFL"><cc:permits
           rdf:resource="http://scripts.sil.org/pub/OFL/Reproduction" /><cc:permits
           rdf:resource="http://scripts.sil.org/pub/OFL/Distribution" /><cc:permits
           rdf:resource="http://scripts.sil.org/pub/OFL/Embedding" /><cc:permits
           rdf:resource="http://scripts.sil.org/pub/OFL/DerivativeWorks" /><cc:requires
           rdf:resource="http://scripts.sil.org/pub/OFL/Notice" /><cc:requires
           rdf:resource="http://scripts.sil.org/pub/OFL/Attribution" /><cc:requires
           rdf:resource="http://scripts.sil.org/pub/OFL/ShareAlike" /><cc:requires
           rdf:resource="http://scripts.sil.org/pub/OFL/DerivativeRenaming" /><cc:requires
           rdf:resource="http://scripts.sil.org/pub/OFL/BundlingWhenSelling" /></cc:License></rdf:RDF></metadata><sodipodi:namedview
     inkscape:window-height="705"
     inkscape:window-width="1366"
     inkscape:pageshadow="2"
     inkscape:pageopacity="0.0"
     guidetolerance="10.0"
     gridtolerance="10.0"
     objecttolerance="10.0"
     borderopacity="1.0"
     bordercolor="#666666"
     pagecolor="#ffffff"
     id="base"
     showgrid="false"
     inkscape:zoom="2.8591284"
     inkscape:cx="64.538412"
     inkscape:cy="31.912007"
     inkscape:window-x="-8"
     inkscape:window-y="-8"
     inkscape:current-layer="svg2"
     inkscape:window-maximized="1"
     inkscape:showpageshadow="false" /><defs
     id="defs4"><inkscape:perspective
       sodipodi:type="inkscape:persp3d"
       inkscape:vp_x="0 : 397 : 1"
       inkscape:vp_y="0 : 1000 : 0"
       inkscape:vp_z="1832 : 397 : 1"
       inkscape:persp3d-origin="916 : 264.66667 : 1"
       id="perspective10" /></defs><path
     style="fill:#f9061b;fill-opacity:1;stroke-width:0.37893349"
     d="M 50.145572,-2.7026012 A 48.651202,48.651202 0 0 0 1.9985702,46.281368 48.651202,48.651202 0 0 0 50.815767,94.596697 48.651202,48.651202 0 0 0 99.299415,45.94627 l -0.0055,-0.670195 A 48.651202,48.651202 0 0 0 50.145572,-2.7026012 Z m 0.157471,23.6018802 v 0 a 25.219194,25.219194 0 0 1 25.475164,24.870135 l 0.0047,0.347509 A 25.219194,25.219194 0 0 1 50.649876,71.336117 25.219194,25.219194 0 0 1 25.344588,46.290677 25.219194,25.219194 0 0 1 50.302368,20.899279 Z m 0.698114,2.134696 A 23.034855,23.034855 0 0 0 27.887187,45.909816 23.034855,23.034855 0 0 0 50.683912,69.102133 23.034855,23.034855 0 0 0 73.954558,46.386089 l 0.0039,-0.317258 A 23.034855,23.034855 0 0 0 51.002706,23.033975 Z m -9.180275,10.79759 21.948892,12.344311 -22.128076,12.046446 z"
     id="path819"
     inkscape:connector-curvature="0" /></svg>